<?xml version="1.0" encoding="UTF-8"?>
<svg xmlns="http://www.w3.org/2000/svg" viewBox="0 0 64 64">
    <path d="M 42 2 C 33.18 2 26 9.18 26 18 C 26 19.38 26.179766 20.72 26.509766 22 L 23.830078 22 C 22.880078 16.33 17.94 12 12 12 C 5.38 12 0 17.38 0 24 C 0 29.22 3.34 33.660547 8 35.310547 L 8 55 C 8 56.65 9.35 58 11 58 L 12 58 L 12 59 C 12 60.654 13.346 62 15 62 C 16.654 62 18 60.654 18 59 L 18 58 L 40 58 L 40 59 C 40 60.654 41.346 62 43 62 C 44.654 62 46 60.654 46 59 L 46 58 L 47 58 C 48.65 58 50 56.65 50 55 L 50 48 L 52.699219 48 L 58.011719 51.503906 C 58.503719 51.828906 59.073109 52 59.662109 52 L 62 52 C 63.103 52 64 51.103 64 50 L 64 34 C 64 32.897 63.103 32 62 32 L 59.662109 32 C 59.073109 32 58.503719 32.171094 58.011719 32.496094 L 52.699219 36 L 50 36 L 50 31.839844 C 54.78 29.079844 58 23.91 58 18 C 58 9.18 50.82 2 42 2 z M 42 4 C 49.72 4 56 10.28 56 18 C 56 22.75 53.62 26.950469 50 29.480469 C 49.37 29.930469 48.7 30.320391 48 30.650391 C 46.18 31.520391 44.14 32 42 32 C 36.42 32 31.599609 28.72 29.349609 24 C 29.039609 23.36 28.790078 22.69 28.580078 22 C 28.200078 20.73 28 19.39 28 18 C 28 10.28 34.28 4 42 4 z M 42 6 C 41.447 6 41 6.448 41 7 L 41 9 C 41 9.552 41.447 10 42 10 C 42.553 10 43 9.552 43 9 L 43 7 C 43 6.448 42.553 6 42 6 z M 12 14 C 16.82 14 20.870781 17.44 21.800781 22 C 21.930781 22.64 22 23.31 22 24 C 22 29.51 17.51 34 12 34 C 11.31 34 10.64 33.930781 10 33.800781 C 9.3 33.660781 8.63 33.440156 8 33.160156 C 4.47 31.620156 2 28.09 2 24 C 2 18.49 6.49 14 12 14 z M 42 14 C 39.794 14 38 15.794 38 18 C 38 20.206 39.794 22 42 22 C 44.206 22 46 20.206 46 18 C 46 15.794 44.206 14 42 14 z M 42 16 C 43.103 16 44 16.897 44 18 C 44 19.103 43.103 20 42 20 C 40.897 20 40 19.103 40 18 C 40 16.897 40.897 16 42 16 z M 31 17 C 30.447 17 30 17.448 30 18 C 30 18.552 30.447 19 31 19 L 33 19 C 33.553 19 34 18.552 34 18 C 34 17.448 33.553 17 33 17 L 31 17 z M 51 17 C 50.447 17 50 17.448 50 18 C 50 18.552 50.447 19 51 19 L 53 19 C 53.553 19 54 18.552 54 18 C 54 17.448 53.553 17 53 17 L 51 17 z M 12 20 C 9.794 20 8 21.794 8 24 C 8 26.206 9.794 28 12 28 C 14.206 28 16 26.206 16 24 C 16 21.794 14.206 20 12 20 z M 34.082031 21.507812 C 33.95325 21.523781 33.824328 21.565766 33.705078 21.634766 L 31.974609 22.634766 C 31.495609 22.910766 31.330422 23.522 31.607422 24 C 31.793422 24.321 32.128609 24.5 32.474609 24.5 C 32.644609 24.5 32.817609 24.456234 32.974609 24.365234 L 34.705078 23.365234 C 35.184078 23.089234 35.349266 22.478 35.072266 22 C 34.864516 21.6415 34.468375 21.459906 34.082031 21.507812 z M 12 22 C 13.103 22 14 22.897 14 24 C 14 25.103 13.103 26 12 26 C 10.897 26 10 25.103 10 24 C 10 22.897 10.897 22 12 22 z M 24 24 L 27.169922 24 C 29.549922 29.86 35.3 34 42 34 C 44.12 34 46.15 33.580078 48 32.830078 L 48 36 L 48 48 L 48 55 C 48 55.55 47.55 56 47 56 L 46 56 L 40 56 L 18 56 L 12 56 L 11 56 C 10.45 56 10 55.55 10 55 L 10 54 L 37 54 C 37.553 54 38 53.552 38 53 C 38 52.448 37.553 52 37 52 L 10 52 L 10 35.830078 C 10.65 35.940078 11.32 36 12 36 C 18.62 36 24 30.62 24 24 z M 37.623047 24.800781 C 37.236328 24.752641 36.841766 24.935672 36.634766 25.294922 L 35.634766 27.025391 C 35.358766 27.503391 35.522 28.116578 36 28.392578 C 36.157 28.483578 36.328047 28.525391 36.498047 28.525391 C 36.844047 28.525391 37.180234 28.346391 37.365234 28.025391 L 38.365234 26.294922 C 38.642234 25.816922 38.479 25.204734 38 24.927734 C 37.8805 24.858734 37.751953 24.816828 37.623047 24.800781 z M 42 26 C 41.447 26 41 26.448 41 27 L 41 29 C 41 29.552 41.447 30 42 30 C 42.553 30 43 29.552 43 29 L 43 27 C 43 26.448 42.553 26 42 26 z M 59.662109 34 L 62 34 L 62 50 L 59.662109 50 C 59.466109 50 59.275328 49.943938 59.111328 49.835938 L 54 46.462891 L 54 37.537109 L 59.111328 34.164062 C 59.275328 34.056062 59.466109 34 59.662109 34 z M 59 37 C 58.447 37 58 37.448 58 38 L 58 46 C 58 46.552 58.447 47 59 47 C 59.553 47 60 46.552 60 46 L 60 38 C 60 37.448 59.553 37 59 37 z M 21 38 C 19.897 38 19 38.897 19 40 L 19 44 C 19 45.103 19.897 46 21 46 L 37 46 C 38.103 46 39 45.103 39 44 L 39 40 C 39 38.897 38.103 38 37 38 L 21 38 z M 50 38 L 52 38 L 52 46 L 50 46 L 50 38 z M 21 40 L 37 40 L 37.001953 44 L 21 44 L 21 40 z M 41 52 C 40.447 52 40 52.448 40 53 C 40 53.552 40.447 54 41 54 L 45 54 C 45.553 54 46 53.552 46 53 C 46 52.448 45.553 52 45 52 L 41 52 z M 14 58 L 16 58 L 16 59 C 16 59.551 15.552 60 15 60 C 14.448 60 14 59.551 14 59 L 14 58 z M 42 58 L 44 58 L 44 59 C 44 59.551 43.552 60 43 60 C 42.448 60 42 59.551 42 59 L 42 58 z"/>
</svg>